<mxfile host="app.diagrams.net" modified="2024-05-09T20:16:11.874Z" agent="Mozilla/5.0 (Windows NT 10.0; Win64; x64) AppleWebKit/537.36 (KHTML, like Gecko) Chrome/124.0.0.0 Safari/537.36" version="24.2.5" etag="QfaXc4ryCXch8YLRXYzG" type="github">
  <diagram name="Page-1" id="8pWO5a1OhcJoQkcHz67v">
    <mxGraphModel>
      <root>
        <mxCell id="0" />
        <mxCell id="1" parent="0" />
      </root>
    </mxGraphModel>
  </diagram>
</mxfile>
